<svg xmlns="http://www.w3.org/2000/svg" viewBox="0 0 42.35 59.61"><defs><style>.c6b013e1-8ff3-437f-8903-e6b94a718f21{fill:red;}</style></defs><title>Risorsa 1ldpi</title><g id="ca32d199-2a2e-4d46-9def-1b1dfe43d072" data-name="Livello 2"><g id="62d0d6b7-540d-401a-8a90-9862da179d98" data-name="Livello 1"><path class="c6b013e1-8ff3-437f-8903-e6b94a718f21" d="M21.18,59.49a.46.46,0,0,1-.33-.15A118.54,118.54,0,0,1,5,34.65a21.34,21.34,0,0,1-2.79-4.3A21,21,0,0,1,12.81,1.86l.49-.2c.48-.19,1-.37,1.45-.53l.69-.19L15.7.87c.48-.13,1-.26,1.46-.35.23-.05.46-.08.69-.11l.25,0A20.9,20.9,0,0,1,42.23,21.18a21.13,21.13,0,0,1-.82,5.75,21.65,21.65,0,0,1-1.31,3.42,21.35,21.35,0,0,1-2.77,4.27A118.36,118.36,0,0,1,21.5,59.34.46.46,0,0,1,21.18,59.49Zm0-57.21-.63,0-.47,0,0,.15A26.29,26.29,0,0,1,20.9,9c0,5.07-1.25,9.55-3.11,11.16l-.05.05v.06a64.67,64.67,0,0,1,.5,8.53,52.78,52.78,0,0,1-.89,10.73l0,.13.12,0a19.49,19.49,0,0,0,3.73.37,18.43,18.43,0,0,0,2.9-.25l.14,0,0-.13c-.58-2.27-1-7.31-1-12.83,0-1.91,0-3.76.13-5.51v-.05l-.05-.06c-.2-2-.31-4.2-.31-6.44a51,51,0,0,1,1.28-12.1l0-.13-.13,0A18.42,18.42,0,0,0,21.18,2.28Zm6.09,1.24a23,23,0,0,1,1.29,8.1c0,4.4-1,8.42-2.39,10,0,1.74.08,3.47.08,5.22a67,67,0,0,1-.9,12.56l-.05.2.2,0a18.88,18.88,0,0,0,1.93-36.2l-.26-.09ZM12,4.64a18.89,18.89,0,0,0,3.11,34.44l.21.07,0-.21a57.28,57.28,0,0,1-.76-10.12,66.43,66.43,0,0,1,.5-8.53v-.06L15,20.18c-1.86-1.61-3.1-6.09-3.1-11.16a28.48,28.48,0,0,1,.31-4.26l0-.25Zm7.49-2.28c-.49,0-1,.11-1.44.19l-.11,0v.1c.05,4.06.23,10.85.84,10.85s.8-6.91.85-11V2.35Zm-2.44.37c-.49.11-1,.23-1.43.37l-.09,0v.09c.07,4.7.27,10.3.83,10.3s.78-5.8.84-10.67V2.7Zm-2.45.73c-.48.18-1,.37-1.41.58l-.07,0v.08c.12,6.21.4,9.36.82,9.36s.75-5.4.83-9.94V3.4Z"/><path d="M21.18.25A20.91,20.91,0,0,1,40,30.3a21.39,21.39,0,0,1-2.76,4.24l0,0v0A118.15,118.15,0,0,1,21.4,59.26a.28.28,0,0,1-.22.1.29.29,0,0,1-.23-.1A118.15,118.15,0,0,1,5.15,34.59v0l0,0A21.39,21.39,0,0,1,2.36,30.3a22,22,0,0,1-1.3-3.4A20.87,20.87,0,0,1,12.86,2l.34-.14.15-.06c.53-.21,1-.39,1.44-.53l.68-.19L15.73,1c.46-.12,1-.25,1.45-.35l.68-.11.26,0A20.8,20.8,0,0,1,21.18.25m0,40A18.67,18.67,0,0,0,24.1,40l.27,0-.07-.27c-.58-2.25-1-7.28-1-12.79,0-1.91.05-3.76.13-5.51v-.08l-.05-.07a62.8,62.8,0,0,1-.31-6.4A50.75,50.75,0,0,1,24.39,2.72l.07-.27-.27,0a19.76,19.76,0,0,0-3-.26c-.22,0-.43,0-.64,0l-.31,0h-.31l.08.3A26.06,26.06,0,0,1,20.77,9c0,5-1.23,9.48-3.06,11.07l-.1.09,0,.13a66,66,0,0,1,.5,8.51,52.27,52.27,0,0,1-.9,10.7l-.06.26.26,0a19,19,0,0,0,3.75.37M18.82,13.65c.25,0,.84,0,1-11.16V2.21l-.27,0c-.54,0-1.06.13-1.45.2l-.22,0v.22c.14,11,.69,11,1,11m-2.42,0c.27,0,.82,0,1-10.79V2.54l-.31.07c-.56.12-1,.24-1.44.37l-.18,0v.19c.16,10.43.7,10.43,1,10.43m8.74,26.12.39-.09A19,19,0,0,0,27.47,3.24L27,3.06l.21.51a23,23,0,0,1,1.28,8c0,4.37-1,8.36-2.36,9.92l-.07.08v.1c.08,1.66.12,3.38.12,5.13a67.45,67.45,0,0,1-.9,12.53l-.09.39M14,13.65c.28,0,.79,0,.95-10.07V3.22l-.34.12c-.5.19-1,.38-1.42.59L13,4v.16c.18,9.49.66,9.49.94,9.49m1.54,25.68-.08-.42a55.85,55.85,0,0,1-.77-10.09,64.1,64.1,0,0,1,.51-8.51v-.13l-.1-.09C13.26,18.5,12,14.05,12,9a29.59,29.59,0,0,1,.31-4.24l.08-.5L12,4.53A19,19,0,0,0,15.11,39.2l.41.13M21.18,0a20.89,20.89,0,0,0-3.09.25c-.32,0-.64.08-.95.15-.5.09-1,.22-1.47.35-.32.09-.64.16-1,.26-.49.16-1,.34-1.46.54l-.49.2a21.12,21.12,0,0,0-7.83,33A116.85,116.85,0,0,0,20.76,59.42a.54.54,0,0,0,.42.19.53.53,0,0,0,.41-.19A117.15,117.15,0,0,0,37.43,34.7a21.09,21.09,0,0,0,2.78-4.3A20.27,20.27,0,0,0,41.53,27,21.14,21.14,0,0,0,21.18,0Zm0,40a18.72,18.72,0,0,1-3.7-.37,52.66,52.66,0,0,0,.9-10.76,65.65,65.65,0,0,0-.5-8.54C19.7,18.69,21,14.25,21,9a26.42,26.42,0,0,0-.78-6.57c.31,0,.62-.05.94-.05a18.22,18.22,0,0,1,3,.26,50.66,50.66,0,0,0-1.28,12.13c0,2.31.11,4.5.31,6.49l0,0c-.08,1.69-.13,3.56-.13,5.52a64,64,0,0,0,1,12.86,19.52,19.52,0,0,1-2.88.24ZM18.82,13.4c-.34,0-.64-4.58-.71-10.73.47-.07.95-.14,1.43-.19-.07,6.25-.37,10.92-.72,10.92Zm-2.42,0c-.34,0-.62-4.31-.71-10.18.47-.14,1-.26,1.43-.37C17,8.91,16.75,13.4,16.4,13.4Zm9.07,26a66.85,66.85,0,0,0,.91-12.59c0-1.82,0-3.55-.12-5.14,1.42-1.57,2.43-5.49,2.43-10.09a23,23,0,0,0-1.3-8.14,18.75,18.75,0,0,1-1.92,36ZM14,13.4c-.32,0-.59-3.85-.69-9.24a14.05,14.05,0,0,1,1.39-.58c-.09,5.69-.37,9.82-.7,9.82ZM15.19,39A18.76,18.76,0,0,1,12.1,4.75,28.62,28.62,0,0,0,11.78,9c0,5.23,1.32,9.67,3.15,11.26a65.46,65.46,0,0,0-.51,8.54A57.24,57.24,0,0,0,15.19,39Z"/></g></g></svg>